<?xml version="1.0" encoding="UTF-8"?><svg xmlns="http://www.w3.org/2000/svg" xmlns:xlink="http://www.w3.org/1999/xlink" contentScriptType="text/ecmascript" width="150" zoomAndPan="magnify" contentStyleType="text/css" viewBox="0 0 150 74.999997" height="74.999997" preserveAspectRatio="xMidYMid meet" version="1.0"><defs><clipPath id="clip-0"><path d="M 118.558594 24.164062 L 142.558594 24.164062 L 142.558594 51.164062 L 118.558594 51.164062 Z M 118.558594 24.164062 " clip-rule="nonzero"/></clipPath><clipPath id="clip-1"><path d="M 83.425781 24.164062 L 105.175781 24.164062 L 105.175781 51.164062 L 83.425781 51.164062 Z M 83.425781 24.164062 " clip-rule="nonzero"/></clipPath><clipPath id="clip-2"><path d="M 105.261719 37.5 L 114.261719 37.5 L 114.261719 39.75 L 105.261719 39.75 Z M 105.261719 37.5 " clip-rule="nonzero"/></clipPath><clipPath id="clip-3"><path d="M 11.609375 25.226562 L 29.609375 25.226562 L 29.609375 52.226562 L 11.609375 52.226562 Z M 11.609375 25.226562 " clip-rule="nonzero"/></clipPath><clipPath id="clip-4"><path d="M 42.800781 25.226562 L 63.800781 25.226562 L 63.800781 52.226562 L 42.800781 52.226562 Z M 42.800781 25.226562 " clip-rule="nonzero"/></clipPath><clipPath id="clip-5"><path d="M 34.097656 37.5 L 43.097656 37.5 L 43.097656 39.75 L 34.097656 39.75 Z M 34.097656 37.5 " clip-rule="nonzero"/></clipPath></defs><path fill="rgb(17.248535%, 69.40918%, 73.728943%)" d="M 64.707031 68.171875 L 11.207031 68.171875 C 9 68.171875 7.207031 66.375 7.207031 64.171875 L 7.207031 10.667969 C 7.207031 8.464844 9 6.671875 11.207031 6.671875 L 64.707031 6.671875 C 66.910156 6.671875 68.707031 8.464844 68.707031 10.667969 L 68.707031 64.171875 C 68.707031 66.375 66.910156 68.171875 64.707031 68.171875 Z M 64.707031 68.171875 " fill-opacity="1" fill-rule="nonzero"/><g clip-path="url(#clip-0)"><path fill="rgb(17.248535%, 69.40918%, 73.728943%)" d="M 142.464844 50.316406 L 133.632812 24.609375 C 133.546875 24.363281 133.320312 24.199219 133.066406 24.199219 L 127.988281 24.199219 C 127.734375 24.199219 127.507812 24.363281 127.425781 24.609375 L 118.59375 50.316406 C 118.527344 50.503906 118.558594 50.710938 118.667969 50.871094 C 118.78125 51.035156 118.960938 51.128906 119.15625 51.128906 L 122.972656 51.128906 C 123.226562 51.128906 123.453125 50.964844 123.535156 50.722656 L 125.710938 44.398438 L 135.347656 44.398438 L 137.519531 50.722656 C 137.605469 50.964844 137.832031 51.128906 138.085938 51.128906 L 141.898438 51.128906 C 142.09375 51.128906 142.273438 51.035156 142.386719 50.871094 C 142.5 50.710938 142.527344 50.503906 142.464844 50.316406 Z M 130.335938 30.933594 L 130.71875 30.933594 L 133.875 40.113281 L 127.179688 40.113281 Z M 130.335938 30.933594 " fill-opacity="1" fill-rule="nonzero"/></g><g clip-path="url(#clip-1)"><path fill="rgb(17.248535%, 69.40918%, 73.728943%)" d="M 105 50.167969 L 94.894531 35.992188 L 104.351562 25.210938 C 104.511719 25.03125 104.550781 24.773438 104.453125 24.554688 C 104.355469 24.332031 104.140625 24.191406 103.902344 24.191406 L 99.152344 24.191406 C 98.984375 24.191406 98.820312 24.261719 98.707031 24.390625 L 88.847656 35.394531 L 88.847656 24.804688 C 88.847656 24.464844 88.578125 24.191406 88.246094 24.191406 L 84.027344 24.191406 C 83.695312 24.191406 83.425781 24.464844 83.425781 24.804688 L 83.425781 50.527344 C 83.425781 50.867188 83.695312 51.140625 84.027344 51.140625 L 88.246094 51.140625 C 88.578125 51.140625 88.847656 50.867188 88.847656 50.527344 L 88.847656 42.886719 L 91.613281 39.730469 L 99.5625 50.886719 C 99.675781 51.046875 99.855469 51.140625 100.050781 51.140625 L 104.511719 51.140625 C 104.738281 51.140625 104.945312 51.011719 105.050781 50.804688 C 105.152344 50.601562 105.132812 50.355469 105 50.167969 Z M 105 50.167969 " fill-opacity="1" fill-rule="nonzero"/></g><g clip-path="url(#clip-2)"><path fill="rgb(17.248535%, 69.40918%, 73.728943%)" d="M 105.261719 37.507812 L 105.261719 39.742188 L 114.261719 39.742188 L 114.261719 37.507812 L 105.261719 37.507812 " fill-opacity="1" fill-rule="nonzero"/></g><g clip-path="url(#clip-3)"><path fill="rgb(100%, 100%, 100%)" d="M 29.007812 25.234375 L 24.808594 25.234375 C 24.476562 25.234375 24.210938 25.503906 24.210938 25.832031 L 24.210938 43.699219 C 24.210938 45.644531 22.71875 47.34375 20.773438 47.421875 C 18.710938 47.5 17.007812 45.867188 17.007812 43.824219 C 17.007812 43.496094 16.742188 43.226562 16.410156 43.226562 L 12.210938 43.226562 C 11.875 43.226562 11.609375 43.503906 11.609375 43.839844 C 11.617188 48.460938 15.652344 52.222656 20.609375 52.222656 C 25.570312 52.222656 29.609375 48.457031 29.609375 43.824219 L 29.609375 25.832031 C 29.609375 25.503906 29.339844 25.234375 29.007812 25.234375 Z M 29.007812 25.234375 " fill-opacity="1" fill-rule="nonzero"/></g><g clip-path="url(#clip-4)"><path fill="rgb(100%, 100%, 100%)" d="M 55.398438 52.226562 L 51.203125 52.226562 C 50.871094 52.226562 50.605469 51.953125 50.605469 51.613281 L 50.605469 29.523438 L 43.414062 29.523438 C 43.082031 29.523438 42.8125 29.25 42.8125 28.910156 L 42.8125 25.84375 C 42.8125 25.503906 43.082031 25.226562 43.414062 25.226562 L 63.1875 25.226562 C 63.519531 25.226562 63.785156 25.503906 63.785156 25.84375 L 63.785156 28.910156 C 63.785156 29.25 63.519531 29.523438 63.1875 29.523438 L 55.996094 29.523438 L 55.996094 51.613281 C 55.996094 51.953125 55.730469 52.226562 55.398438 52.226562 Z M 55.398438 52.226562 " fill-opacity="1" fill-rule="nonzero"/></g><g clip-path="url(#clip-5)"><path fill="rgb(100%, 100%, 100%)" d="M 34.097656 37.507812 L 34.097656 39.742188 L 43.097656 39.742188 L 43.097656 37.507812 L 34.097656 37.507812 " fill-opacity="1" fill-rule="nonzero"/></g></svg>